<svg xmlns="http://www.w3.org/2000/svg" width="653" height="689" viewBox="6507 5192 7342 7727" fill-rule="evenodd" clip-rule="evenodd"><defs><style>.str2 {stroke:#000000;stroke-width:35.28;stroke-linecap:round;stroke-linejoin:round} .str1 {stroke:#000000;stroke-width:70.56;stroke-linejoin:round} .fil1 {fill:none} .fil2 {fill:#FFFFFF} .fil5 {fill:#000000}</style></defs><path class="fil5" d="M11489 6497c-38-35-86-44-88-66 29 4 74 6 99 66h-11zm-3043 630c-2-28 69-15 97-10-1 23-2 12-6 14-25 0-72-7-92-4zm3642 281c-9-6-15-12-18-19-43-25-77-32-114-28-9 5-14 16-23 16-28-26-71-24-98-28 0-4 0-4 22-31 5-16 5-16 9-18 21 7 46 38 79 24 12-16 36-58 63-41 17-1 35-2 53-2 3 5 7 11 11 16 22 21 49 60 69 96-2 5-2 9-3 14h-7c-17-21-28-14-44 2zm-4143 531c-19-94-73-153-81-261-7-31-25-63-3-63 13 22 38 44 58 77 4 56 34 127 38 189-3 16-4 48-13 58zm4524 267c-12-17-24-33-36-50-11-24-22-46-32-69-32-23-52 3-54-32-21-37-25-34-57-44 1-13 2-26 4-37 25 8 38 11 72 2 13 4 13 4 33 18 5 12 35 96 57 102 6 20 13 40 20 60-1 16-1 33-2 50h-5zm-4601 563c-64-344-26-433 4-531 44 21 109 440-4 531zm4357 364c-20-22-9-42-9-62 3-2 6-4 10-5 4 3 8 5 12 8 1 18-1 39-13 59zm11 271c-1-20 4-45-4-56-1-10 0-19 0-28 6-4 12-7 19-10 12-29 4-73-1-97-2-1-4-2-5-3-2-21 4-26 11-40 3-1 6-1 10-1 3 6 11 7 15 20 1 41 2 83 4 125-9 35-5 78-49 91zm-381 240c-9-4-17-9-25-12-2-26 8-31 19-49 1-36 3-35-22-48-1-2-1-4-1-5 6-12 13-23 20-34 2-1 4-1 7-1 6 15 16 26 17 49h-5c-11 28-11 28-11 37 3 7 9 56 7 62-3 0-5 1-8 2zm724 92v-5c-29-22-58-41-81-46-11-23 15-21 33-18 0 1 1 3 2 5 33 2 99 5 120 53-28 0-53 9-74 10zm-757 83c-3-17-15-61 9-61 1 51 1 51-1 58-3 1-5 2-8 3zm718 6c-19-15-29-29-34-44-15-16-15-16-24-32 1-2 1-2 20 1 34 28 38 26 46 75h-7zm99 118c-4-9-9-18-12-27h-4c-1-4-2-7-3-10 13-7 4-7 23-11 1 7 1 7-5 48zm-4190 458c-16-9-31-17-47-25-18-31-7-69-12-93-9-42-79-145-89-159s-164-87-200-98c-8-15-18-11-22-18 54-1 101 5 155-20 3 5 19 20 24 35 48 44 109 100 157 163 27 25 60 84 85 127 8 7 8 7 14 19 4 0 48 67 59 91-40 0-77-28-126-21zm590 219c-92-26-185-49-259-94-67-21-119-100-153-144-27-23-94-109-96-140 26 4 80 32 108 43 79 40 147 70 219 122 9 19 59 46 74 72 26 15 108 106 110 139-2 0-3 1-4 2zm1813 39c-6-3-11-5-17-7-6-10-6-10-9-23 8-15 9-12 34 0 1 7 5 24-8 30zm94 96c4-25 9-55 32-64 34-63 41-81 43-80 0 30 0 30-3 45-47 10-36 77-71 99zm-53 61c-19-25-32-96-25-113 12 16 27 21 37 55 1 13 1 13-6 58h-6zm-1516 29c-26-8-26-8-42-17v-4c-58-31-88-74-127-105-1-3-2-5-2-6 11 0 100-5 107 8 20 1 41 1 62 3 54 15 97 12 154 60v5c-11 6-23 12-34 19-43 5-82 26-118 38zm-883-47c10-22 50-94 72-94 5 75-23 148-10 234-23 39-64-117-62-141zm1230 283c-8-3-8-3-57-32-7-12-92-73-109-77-32-19-117-69-112-89 54-18 97-42 158-47 32 32 78 62 124 93 3 5 24 16 35 25 35 42 78 88 119 141 18 13 57 49 69 65-54 1-177-50-227-79zM8084 7378c-5 21-16 63-21 87-9 43-4 89-10 140-5 49-15 98-31 144-8 24-11 62-32 91-1 2-3-3-3-5 2-57-16-104-14-156 0-4 6-7 7-11 8-56 32-107 40-160 6-39-2-127-19-155-10-16-21-30-22-43-3-45 10-71-8-100-30-49-39-122-68-159-29-38-42-85-51-119-6-25-26 60-36 92-4 13-16 23-18 37-8 55-7 112-15 167-2 15-4 43-11 63-7 19-13 46-1 70 21 46 26 108 49 164 5 13 22 48 9 41-18-11-22-47-32-49-3-1-8-9-8-10-23-45-46-78-74-110-31-35-24-40-32-53-10-17-69-126-84-109-20 22-3 61 2 101 6 54 1 149 29 208 11 23 43 130 59 141 1 0 39 49 47 71 7 18-67 23-78 26-24 7-61 20-76 31-32 24-54 65-93 78-51 16-54 6-82 8-20 1-78-20-101-25-37-8 73 94 81 99 25 18 70 34 109 38 48 5 48 2 62 2 32 0 74-3 105-20 62-35 104-69 147-123 5-6 6-28 17-25 51 14 120 145 72 199-11 13-16 62-34 63-35 2-58-54-81-71-23-16-66-24-77-21-15 4-15 3-36 13-42 22-87 62-95 110-8 44 10 95 67 112 35 10 88-12 93-52 7-50 2-89-38-115-4-3-5-12-1-13 39-4 70 21 99 61 9 12 44 21 38 44-35 139-70 227-25 515l-42-35c-3-5-2-11-1-16 10-44 4-86-3-121-11-52-48-106-70-140-18-27-36-54-56-71-44-37-89-70-110-109-14-25-8-28-19-42-3-4-18-27-22-30-44-31 32 240 36 255 16 58 49 121 84 183 2 3 7 2 10 5 11 16 51 52 81 68 18 10 34 36 60 57 8 7 27 28 50 43 11 31 5 132 13 179 4 23-77-51-83-59-15-21 4-125-4-133-17-17-34-44-43-54-60-71-145-111-222-124-18-3-37 1-55-3-28-6-54-16-79-26-6-2-54-48-62-40-13 13 10 50 28 73 15 18 39 32 63 57 23 24 20 26 28 40 11 20 27 51 53 78 12 12-21 45-13 60 0 1 41 29 43 31 13 9 30 30 55 38 26 9 54 14 82 20 49 10 91 6 143 45 22 16 54 35 79 64 10 12-3 41-3 61 0 34 6 73 17 119 6 25 24 58 9 86-8 15-35-31-40-40-21-34-59-65-80-86-44-45-215-67-259-23-6 6-58 15-68 17-39 9-122 13-146 32-17 13 47 22 62 28 15 7 31 17 56 29 57 26 101 46 171 53 16 2 47 5 74 6 37 1 75 8 112 16 43 9 113 27 139 62 14 19 11 51 28 80 10 17 117 239 112 239-7 1-14-4-19-7-33-19-62-21-81-39-18-17-31-43-34-53-12-38-31-75-40-104-12-38-47-68-69-80-26-15-54-26-81-36-92-33-182-39-270-48-18-2-38-7-52-18-12-10-25-20-27-17-20 37 65 105 79 133 9 18 33 47 57 72 50 54 56 48 65 55 21 17 43 31 67 44 14 7 66 16 86 26 20 11 41 14 68 18 8 1 27 8 42 14 35 13 73 18 116 27 46 10 77 34 113 54 19 11 102 100 76 109-24 9-69 21-83 10-103-78-300-112-408-96-13 2-97 31-107 35-21 8 89 23 93 25 74 49 156 201 305 223 0 0 53 9 54 10 83 67-25 138 119 176 42 11 61 51 96 75 37 25 90 44 132 81 7 6 51 26 41 43-6 11-95 80-105 72-14-10-21-11-27-16-16-15-31-16-39-23-25-22-52-46-63-58-20-23-60-80-75-94-153-138-374-34-537-2 58 54 93 26 144 50 46 22 101 31 142 58 10 7 60 68 79 76 16 7 60 33 80 45 19 11 43 18 60 29 27 18 121 29 161 11 1 0 127-49 131-48 11 6-10 56 15 64 6 2 19-64 36-71 32-15 68-18 102-24 11-2 22 0 33 1 59 10 142 30 186 82 1 1 0 4-2 5-16 4-29 9-41 20-25 23-80 54-108 67-26 12-69 34-93 30-12-2-6-14-16-15-44-8-69-4-102 17-17 10-22 9-36 15-47 19-65 39-91 73-29 37-57 76-70 125-5 17-34 54-39 75-3 10-5 13-13 20-7 7-93 87-66 97 9 3 120-39 120-40 25-19 67-21 95-44 16-13 54-38 71-54 44-40 91-72 128-119 9-11 9-28 18-39 11-14 4-57 12-68 8-10 74-37 68-24-28 53-43 102-65 164-29 83-33 185-21 277 4 34 21 82 47 119 12 18 9 19 13 24 3 5 6 17 16 34 32 53 54 129 72 194 3 12 7 45 21 47 28 5 44-187 50-214 10-45 7-46 5-91 0-8-11-60-14-76-6-34-20-62-20-89 0-8 15 9 22 17 9 10 26 34 40 55 8 12 36 32 47 51 1 2 26 32 33 34 14 5 51 56 75 68 14 7 11-36 11-42-3-59-31-178-67-214-13-13-29-52-42-69-53-68-127-139-148-210-5-16 1-33 6-48 2-8 35-69 45-82 1-1 33-23 36-27 4-4 50-41 53-39 38 22 90 40 138 61 6 3 11 10 3 17-38 34-117 102-112 162 4 59 0 73 67 106 12 6 27 3 40 0 34-6 51-27 62-57 13-39-1-67-19-95-7-11-19-17-30-22-17-7-44-5-42-11 6-15 27-22 39-31 11-9 58-30 74-36 4-2 9-3 14-2 53 15 104 13 158 43 27 15 53 53 79 83 17 20 60 59 92 79 2 1 4 5 1 6-8 5-26 13-28 14-32 9-40-11-61-14-63-8-117 22-173 33-15 3-87 66-102 86-23 30-38 40-47 78-4 15-2 14-13 35-8 16-37 25-31 46 7 23 149-6 180-22 12-6 21-21 33-29 48-33 88-91 140-121 14-8-2 34-17 47-54 45-100 86-140 143-15 21-25 35-36 59-2 4-23 114-25 129-12 81-44 160-37 243 3 35 59-47 69-61 24-38 55-74 84-108 13-16 30-27 44-42 28-30 46-69 70-98 12-15 31-48 32-64 2-25 15-48 16-73 1-23-4-46-9-67-5-22-21-41-24-62-1-10 7-18 12-26 21-36 74-102 131-87 12 3 134 70 118 80-7 4-16 4-22 9-18 18-14 24-30 29-36 12-44 11-57 44-27 68 32 153 105 134 36-10 46-60 47-93 0-13-13-36-20-44-27-27 12-53 38-45 34 11 73 47 109 75 66 51 145 81 234 103 2 0 2 5 0 5-31 3-31 3-41-1-23-10-53-16-82-20-30-4-65-4-86-3-27 1-144 64-166 83-12 11-43 29-65 51-8 8-15 21-26 33-6 6-42 12-24 15 15 2 31-6 46-2 32 8 79 26 84 26 39 4 79 4 118 2 10 0 17-8 27-11 27-8 126-34 147-66 13-21 18-52 35-66 29-23 97-21 140-13 8 2 15 8 23 11 26 8 61 0 70 36 3 10-10 20-20 24-38 15-54 52-86 71-16 10-24 28-28 31-21 22-45 42-67 65-11 12-34 36-40 40-16 10-116 94-92 117 12 12 35 19 64 24 18 3 29-18 40-31 7-8 20-26 23-29 7-7 9-11 18-22 39-51 78-98 118-144 10-11 102-104 118-95 40 22 68 62 103 92 44 37 89 66 136 100 44 33 123 104 186 94 27-5 32-40 14-56-17-15-44-13-65-22-22-10-43-21-63-35-29-20-115-83-122-91-14-15-27-22-34-27-38-30-73-60-100-87-1-1 2-3 4-3 57 9 121 14 184 39 32 12 55 22 94 39 33 15 93 46 131 69 3 2 9 3 11 0 9-11 25-28 23-46 0-2-68-50-77-54-52-24-51-27-198-76-32-11-87 3-97-22-14-32 108-81 141-98 38-20 85-45 132-46 10 0 9 3 18 3 3 0 79 28 81 43 0 1 2-1 4 0 26 26 33 39 78 47 1 0-1 4 1 5 25 4 36 8 57 37 1 2 5-2 7 0 22 23 62 43 103 30 8-2 10-14 19-17 16-6 29 6 54 15 2 1 4-4 5-3 15 11 46 6 65-3 42-19 44-53 29-88-19-45-55-29-87-44-6-3-7-13-6-18 5-38-27-45-46-55-35-19-56-8-76-2-12 4-23 30-32 22-53-45-97-21-141-23-13-1-29 0-39-9-6-5 11 9 38-8 19-12 112-9 132-5 14 3 34 11 56 10 66-3 130-14 202-10 22 1 77 3 90 40 0 1 3-2 4 0 22 30 5 90 17 132 8 28 44 37 64 69 17 26 4 61 35 85 5 4 14-1 20 3 3 2-2 9 1 11 5 4 19 1 31 15 3 4 3 10 1 14-8 20-32 30-31 56 3 48 2 73 67 70 7 0 34-3 55 0 1 0 13 11 22 19 20 16 54 41 90 36 13-2 26-7 34-16 32-34-14-90-26-123-6-15 23-15 36-23 3-2 0-8 1-10 13-19 2-28-9-45-35-58-90-36-124-65-14-12 9-24 5-35-7-17-11-19-6-25s10-3 15 3c16 19 49 70 86 57 33-11 40-1 75 4 43 6 30-30 53-56 8-9 30-14 33-29 10-66-41-67-78-90-4-3 4-3 4-10 0-26-5-37-17-51-38-41-64-24-98-1-10 7-37 38-43 28-14-26-1-31-8-42-27-39-30-30-65-19-24 7-35 23-53 17-38-14-72-24-99-15-44 14-99 1-94-32 5-31 59-28 91-51 22-16 55-13 88-12 17 1 96 40 125 44 25 4 51-1 77-1 31 1 56 11 93 5 19-3 29-31 26-46-1-4-34-8-48-9-45-4-90 4-134-5-32-6-60-27-90-38-9-3-23 1-28-7-4-8 8-14 12-20 1-1 4 2 5 0 3-26 0-20-16-22-13-1-17-10-24-11-19-3-20-3-27 13-15 32-57 74-89 88-38 16-106 41-147 44-91 6-103 6-199 6-14 0-28-9-41-10-22-3-56-1-68-7-4-3 4-10 7-11 15-6 84-40 103-48 35-15 78-35 121-49 45-15 94-20 141-33 19-5 36-21 56-31 17-9 47-23 72-33 9-4 22-5 36-11 44-21 60-51 112-2 19 17-7 44 6 77 3 6 3 6 15 13 9 5 22-4 32 1 29 14 27 20 39 21 16 0 31-4 47-9 2-1-1-4 1-5 36-34-7-73-28-94-3-3-3-7-4-11 0-1 10-11 2-15-46-19-47-12-88 0-22 7-29-6-39-12-2-1-1-4 0-5 16-7 26-4 46-11 53-18 110-33 169-14 18 6 36 15 50 30 25 29 41 66 61 100 1 2-1 9 3 10 25 11 33-11 71-14 49-3-7 170 89 131 9-4 8-17 16-23 2-2 7 0 8 3 6 8 11 18 15 28 10 27 25 36 58 19 1 0 3-1 5 1 17 24 18 48 55 63 9 4 21 2 30-1 35-11 50-22 74-51 9-11 16-18 19-36 2-11 5-23 0-32-7-9-10-47-17-51-40-24-5-73-9-95-2-11 0-27-11-33-27-15-40-6-60-3-16 3-34 32-45 19-18-21 26-62 5-71-46-19-68 40-108 26-50-18-89-26-126-31-39-6-122 8-117-25 5-28 65-23 102-18 20 3 101 42 113-1 0-1 4 1 5 0 8-13 8-40 22-49 18-13 43 3 70-9 28-13 38-57 57-77 17-18 35-8 49-32 0-1 4 2 5 0 5-15 19-9 23-30 2-10 3-22-4-29-16-16-45-17-60-34-8-9 8-12 9-19 3-19 7-39 0-57-15-36-27-38-56-37-1 0 1 3-1 4-20 8-24 27-43 38-22 12-20-21-29-29-45-41-41-17-76 18-12 12-6 6-15 27-13 33-15 56-15 100 0 5 7 45-6 33-20-18-13-43-28-54-2-1 1-5 0-5-23-2-47 47-54 66-5 14-2 32-9 46-2 4-11 4-13 1-12-23-6-28-17-36-7-5-19-5-25 0-22 23-43 54-61 83-7 12-8 30-19 40-19 20-46 15-67 25-16 8-56 27-63 13-16-31 64-87 78-122 3-7 22-28 27-35 17-26 43-64 65-91 20-26 46-56 66-76 7-8 11-17 15-23 30-46 63-81 108-112 48-32 111-14 173-10 17 1 59 22 75 41 5 6 4 7 15 24 20 29 22 44 23 51 4 34-4 85 55 94 11 2-11 28-11 43-1 33 30 90 30 90 0 9-11 16-12 26-2 24 2 34 12 64 2 7 4 17 11 19 24 6 57-2 86-6 8-1 18 44 31 59 12 14 13 14 21 15 21 3 52 2 73-18 38-38 58-75 36-121-15-31-23-23-14-48 11-32 11-37-4-70-14-31-42-14-59-26-23-15 1-48-12-66-27-40-75 2-97-19-31-30-49-65-66-91-15-23-31-15-48-21-3-1-5-8-2-8 13 1 27 5 40 10 12 5 22 14 46 18 8 1 27 12 42 22 33 24 67 75 115 96 24 11 40-17 68-7 37 13 35 45 83 49 6 1 4 13 9 17 9 8 15 36 44 37 48 2 48-4 96 26 23 15 59-1 79-25 20-23 3-35 7-58 1-7 14-4 20-8 42-33 49-35 54-89 0-5 3-6-4-19-30-50-66-16-103-11-6 1-10 9-15 8s-13-6-12-11c2-13 17-20 20-32 3-19-1-39-10-43-28-12-50 18-70 25-22 7-41 23-50 12-14-18 3-42-12-45-40-9-70 8-100 19-8 3-21 11-24 3-14-28-23-49-46-36-11 6-13-4-27-1-12 3-25 21-35 12-11-10 5-31 13-38 13-13 25-5 47-10 9-2 16-11 20-18 20-40-2-82-32-100-2-1 1-4 0-4-16-1-30-1-45 1-1 0 1 3-1 4-13 10-45 32-52 18-12-25-12-38-26-45-8-4-18 1-25 5-36 17-31 48-54 74-2 2-14-27-23-31-18-8-22 6-34 13-29 17-38 45-62 60-27 17-88 28-104 6-14-19 39-28 56-41 32-23 52-35 92-40 12-2 15-2 16-8 2-23-2-18 10-32 23-26-40-21-40-26-1-11 7-17 10-26 20-54 37-107 63-158 9-17 45-18 73-25 29-6 66-4 102-15 14-4 24-3 41 6 9 5 20 14 20 25-1 26-17 40-17 74 0 1 3-2 4 0 5 13 4 28 10 41 3 5 19 5 16 12-21 49-30 92 7 139 11 14 25 3 32 10 6 6 14 74 29 80 7 3 5 19 19 29 20 14 22 11 27 12 53 3 85-7 89-68 1-15-10-22-7-29 8-21 32-20 38-40 0-1 5 2 5 0-1-9-10-12 0-30 4-7 7 15 9 20 0 1 4-1 5 1 7 14 14 2 34 22 21 22-10 57 11 89 8 12 11 27 24 36 8 6 20 5 29 1 19-7 35-39 56-42 2 0-1 5 1 7 6 5 13 13 22 14 34 6 63 9 95-14 25-19 31-67 26-89-5-25-28-32-31-45-12-54-20-68-66-87-10-4-6-16-3-18 18-10 39-20 56-31 7-5 18-2 27 1 2 1-1 5 1 5 12 0 24-2 35-6 61-18 67-43 60-105-1-7-2-15-8-19-32-26-34-22-26-51 12-43-8-54-33-63-15-6-23 4-38 9-27 8-51 37-67 21-32-31-16-55-49-59-16-2-93 30-95 38-1 3-6 0-7-2-6-13-2-32-14-41-41-33-64-5-98 13-31 16-55 33-83 43-30 11-54 12-79 16-66 12-133 28-192 40-28 6-71 39-76 17-14-52 12-105 28-154 8-24 24-45 42-61 10-8 81-30 92-15 12 18 6 43 16 64 6 11 18 18 29 25 5 3 6 4 20 8 23 6 29-2 52-16 20-13 52 2 75-7 17-7 25-32 35-47 5-7 19-1 26-7 3-3 1-11-2-13-6-4-19 3-21-3-25-58-62-67-111-79-14-3-6-27-11-27-75-3-64 33-110 74-13 12-61 13-61 5 2-20 23-27 39-41 68-62 123-149 194-206 28-23 74-23 116 11 7 6 17 5 26 10 2 1-1 5 1 5 9 5 18-2 28 15 14 23 5 29 11 31 33 12 19 42 45 75 8 10 38-5 43 18 8 35 19 56 66 65 17 3-8 35-16 56-3 8-6 20-1 27 27 40 120 37 172 3 28-19 109 16 131-22 27-48-46-76-33-100 20-36 35-56 15-81-17-21-54-18-71-11-6 2-15-2-15-7-1-21 8-40 2-55-2-3-8-1-10-3-49-30-59-6-105 1-16 2-35-6-47-17-10-9-1-29-11-38-8-8-14-8-33-11-37-7-65-5-95 2-19 5-27-6-36-13-2-2-1-6 0-6 12-5 25-10 38-10 26-1 53 13 78 5 20-7 9-34 36-40 9-2 14 29 39 24 14-3 25-41 39-36 20 7 22 25 55 32 15 3 40 4 53-11 29-32 47-46 41-96-1-7-14-7-8-25 4-13 16-7 27-17 3-2 8-1 11-3 1-1-1-4 0-5s4 2 5 0c1-3-2-7 0-9 22-21 40-43 29-74-14-39-37-54-71-55-1 0 0-2-1-3-16-5-22 0-33 3-57 19-47-2-80-39-50-55-85 0-105 43-3 7 5 23-4 26-30 10-38 0-43 6-23 23-21 67-47 85-11 8-16-14-20-16-8-4-21-5-27 0-8 7-13 20-22 42-4 9-28 81-31 91-12 41-34 39-67 49-17 5-43 21-49 11-11-17 6-29 9-42 14-72 2-148 4-217 0-13 8-17 12-26 23-56 47-60 105-72 3-1-2-6-1-7 9-10 24-16 32-27 21-29-58-68-49-78 18-20 112-17 123-45-15-39 26-72 44-67 25 6 49-43 69-62 11-10 52-11 54-25 12-59-21-55-68-71-7-2 22-8 10-27-22-34 38-55-57-88-33-11-29 19-49 45-7 9-6 11-13 17-5 4-5-3-18-10-5-3-4-7-36-12-34-5-51 11-59 39-11 34-1 47 1 71 2 15 12 73-10 54-19-15-74 21-57 42 46 56 31 90-33 104h-11c-1-5-2-9-3-14-6-83-16-165-18-247-1-31 1-31 3-99 1-37 11-72 13-108 3-44-39-82-27-116 6-15 32 2 50-12 16-12 45-6 70 12 2 1 13 6 19 10 11 7 27 5 41 5 7 0 12-8 19-6 5 1 6 8 11 14 19 23 33 40 71 35 12-2 18-10 33-17 26-12 10-45 29-57 36-24 79-32 85-77 10-72-55-54-95-89-30-27-13-59-44-68-35-10-69 16-88 42-5 6-15 12-22 8-56-25-60-3-86 39-4 6-2 25-13 24-12-1-8-8-12-10-38-19-33-4-57 12-15 10-22 35-27 54-6 22-20 44-33 30-38-39-14-56 21-86 7-6 14-13 23-16 24-7 49-8 74-16 8-3 15-8 20-15 3-4-6-9 15-35 9-11 4-37 9-44 6-9 11-15 21-23 45-35 29-41 28-93 0-12 13-19 21-28 1-1 4 2 5 0 1-9 9-13 10-21 10-47-6-81-51-107-17-10 5-42-7-56-43-53-74-33-108 5-13 15-2 26-19 34-22 11-45-2-59 7-7 4-8 6-12 9s-29 53-30 56c-5 21-8 22 0 57 3 11 25 15 24 26-4 35-41 66-24 104 0 1 2-1 4 0 5 4 10 8 12 14s-15 45-16 59c-1 10 1 20 2 31 0 3 19 23 12 35-2 4-11 4-13 0-18-41-17-41-21-51-26-73-62-147-86-210-3-7-8-3-19-28-8-17-44-80-43-79 7-29 72-8 93-17 8-4 54 27 71 28 19 2 29-4 35-9 5-4 1-18 6-16 42 12 97 36 128-1 36-43-24-46 25-82 9-7 16-16 21-25 4-10 7-21 5-32-5-32-70-29-84-25-4 1 0-3-17-31-15-24-35-29-54-25-45 8-67 16-78 70-1 4-4-2-31 2-10 1-19 8-29 9-2 0 0 6-3 7-33 7-20 19-35 48-7 14-32 10-45 20-9 7-8 26-19 31-10 5-12-47-11-51 0-1 3 2 5 1 9-9 14-22 22-30 6-6 24-16 30-21 2-2 7 2 9-1 19-27 32-29 39-68 5-26 63-2 78-18 1-1 4 3 5 1 23-27 1-55 0-77 0-3 7 0 11-1 26-13 64-21 78-46 28-47-17-56-32-94-16-41 12-64-19-83-2-1 1-3 1-4-41-14-63 21-95 34-11 4-9-9-35-18-40-14-51-5-72 26-17 26-11 55 2 90 1 2 4 0 5 1 2 3 25 27 9 33-18 7-24 5-36 16-4 4-13 14-16 18-16 23-17 35 6 69 6 9-16 24-24 36-1 2 5 5 3 6-21 13-7 53 5 73 1 1 0 5-1 3-26-23-17-48-29-68-13-22-37-80-44-85-4-3-1-9-4-13-20-34-43-67-57-96-8-18-9-38-8-56 1-13 7-26 16-35 27-27 48-48 52-84 1-13-9-29-1-38 9-10 33-18 37-33 13-48-41-73-57-103-12-22 20-44 20-68 2-68-22-52-75-84-44-26-24-56-65-57-31-1-45 6-55 37-1 2 8 32-4 35-47 12-74 64-60 112 8 28 48 8 49 41 2 28-29 28-32 57-1 12 11 46 33 62 20 14 48 0 45 37-1 18-1 37 7 54 17 34 88 45 57 92-13 20-36-28-44-38-21-25-47-54-55-61-62-51-93-110-125-168-4-7 7-15 5-23-11-56-4-82 31-116 16-16 31-52 40-67 16-27 56-54 41-83-9-18-29-16-31-25-7-31 13-47 21-70 5-16 1-36-5-44-22-29-49-15-71-26-11-5-12-20-21-28-42-37-55-20-81 5-5 5-3 24-15 25-30 4-47-2-63 20-26 37-30 96 19 139 8 7 21 5 28 21 2 6-6 3-8 11-10 28-17 58-2 89 6 13 28 9 41 18s59 73 20 74c-25 1-39-54-47-62-27-25-53-48-75-64-4-3-12 4-49-48-17-24-13-35-19-55-8-23-4-49 1-72 9-40 21-68-6-100-10-12 4-30 0-43-10-32-29-13-47-33-22-25 19-63 12-95-9-44-54-24-84-29-11-2-8-22-15-31-11-14-9-23-33-27-66-9-52-4-67 72-4 19-27 30-32 48-13 47 3 79 60 113 19 12 19 52 9 84-7 23-48-39-55-45v-1c1-2-24-35-25-59-1-40-3-74-25-96-5-5-20 27-32 3-24-46-12-70-50-73-10-1-33 25-36 18-6-12-3-45-6-52-14-31-58-41-74-31-11 7-34 38-45 35-61-15-97-28-121 30-4 9 23 35 25 49 0 1 4-1 5 1 7 11 28 18 32 37 14 60 2 133 94 113 12-2 20-31 30-20s9 51 25 67c19 19 45-4 66-19 18-12 32 42 78 19 13-7 33 24 48 40 2 2 17-1 18 9 0 3-2-1-21 5-8 3-21 27-26 20-9-12-25-22-28-28-12-23-40-31-53-28-30 6-44 12-45 50 0 5 9 5 5 9-5 6-23-3-26-3-34 8-68 19-53 62 1 2 5 1 6 3s-3 6-1 9c8 8 17 16 28 22 7 4 21-13 42 21 21 35 3 62 56 79 13 4 34 3 53-1 16-4 26-20 41-25 3-1 2 2 5 8 6 11 24 29 47 31 16 1 17 1 31-4s21-20 33-29c1-1 3 2 5 1 2-2 0-5 1-6 17-15 31-29 61-25 62 7 108 41 158 83 3 2 2 9 6 11 20 15 37 35 63 59 1 1-2 4 0 5 13 5 57 82 72 107 0 1 3-1 4 1 4 6 1 12 18 24 3 3 6 9 3 14-2 4-7 5-10 3-40-30-96-94-134-90-29 3-38-49-52-64-24-24-32-19-52-4-4 3-3 11-7 15-2 2-6 0-6-1-5-14-20-27-23-33-1-2 1-3 1-4-14-15-5-25-36-43-59-34-64 13-89 61-4 8-18-1-26 2-23 9-44 30-34 63 1 4 7 5 11 8 1 1-1 3 0 5 13 11 30 17 40 32 4 6-3 15-2 24 1 12 2 26 10 35 26 29 54 59 102 43 6-2 13-18 41-24 14-3 36 41 62 48 3 1 2 6 5 7 21 0 46-27 60-44 7-8 27 8 42 19 10 8 26 14 35 8 23-17 71-28 99-5 4 3 32 42 39 49 35 36 95 92 135 140 0 0 31 22 33 35 0 4 19 20 26 34 3 7 14 28 19 42 0 1 3-1 4 1 1 1 0 5-2 4-27-20-58-28-79-43-9-6-17-13-22-22-19-34-36-60-66-53-8 2-14 23-17 16-19-36-22-64-46-84-21-18-35-2-54 6-9 3-11-7-13-11-30-65-77-87-119-29-8 11-26-10-39-8-32 5-46 8-60 35-15 28 19 62 45 94 5 6-5 19-5 50 0 8 4 17 9 25 5 7 10 6 23 25 24 34 48 38 94 30 19-3 29-17 49-19 2 0-1 4 1 7 10 17 62 27 69 57 6 27-22 14-35 42-2 5-5-2-22-3-42-2-64 2-71 45-4 22 4 50 31 72 13 11 48 0 61 20 10 15 6 70 47 72 19 1 55 22 79 5 11-8 18-39 31-37 29 4 66 38 102 25 11-4 30-40 40-36 1 0-2 4 0 5 5 1 10 1 14-2 7-4 12-12 15-21 16-43 39-28 43 10 2 22 17 18 25 40 55 128 61 132 68 148 9 22 16 34 19 41 5 9 6 22 16 39 12 18 11 28 26 75 5 17 27 34 20 51-4 11-38-36-38-38-3-25-11-64-24-78-14-15-9-41-23-55-33-35-55-75-83-95-3-2 0-8-2-9-28-18-50-9-69-29-28-30-52-28-78-20-61 19-62 43-32 106 11 25 16 22 12 55-7 55-4 51 48 87 35 24 47 3 62 52 2 8 33 27 54 34 2 1 2 5 0 5-15 0-15-3-23-9-46-33-73-27-105 12-29 36-31 40-5 88 4 7 16 9 19 17 5 11 9 68 24 86 16 19 25 32 55 21 6-2 8-11 15-12 4-1 10 2 13 6 11 14 12 37 43 33 17-2 17-12 29-7 9 4 7 22 17 26 17 7 44-4 69-9 6-1 7 15 14 18 14 6 76 12 65 43-5 15-29 16-46 13-72-11-92-19-141 28-10 10 8 34-1 46-38 48-66 64-39 134 4 10-21 15-13 28 5 8 11-7 25-8 39-5 74 1 103-38 4-5 12-6 16-10 11-12 7-31 25-19 22 14 34 3 45-9 20-22 24-55 20-83-2-14-17-28-13-41 4-12 13-20 36-10 2 1 9 22 15 24 2 1-3 4-3 6-4 88 8 173 12 268 2 43 19 89 8 130-3 13-17-7-22-12-31-26-52-32-58-39-5 2-11 4-16 6 3 16 0 26 12 46 1 2 4-2 5 0 4 6 5 16 12 21 10 8 23 18 42 34 5 4 20 0 23 16 12 58 8 58 14 129 4 44 2 89 0 133-1 24-23 98-36 114-39 50-80 98-124 143-3 3-10-6-9-11 6-37-2-70 1-101 1-15 6-29 14-40 12-18 22-32 28-52 0-1 5 2 5 0 0-21 18-49 7-62-7-9-21-7-31-12-3-1-4-5-2-6 7-7 39-25 49-30 5-2 2-11 11-31 1-2 4-11 7-16 10-22 20-48 3-66-13-14-31-7-44-10-3-1-2-5 0-6 16-19 36-63 41-84 3-10 1-22-4-31-27-47-69-13-85-44-21-39-5-52-31-69v-4c-10-3-20-5-30-7-46 2-49 6-73 33-2 16 2 19-19 65-2 5-10-3-15-3-28 5-47 12-54 42-15 62-9 110 65 152 3 2 1 8-1 12-1 3-7 1-7 3-3 11-1 24-6 35-1 3-7 1-7-1-14-45-38-84-73-90-48-9-45 16-52 61-1 8-4 52 14 64 3 2 2 7 0 9-26 27-47 26-51 71s-16 77 43 90c33 7 32-1 36-3 1 0 3 2 3 5 6 52-9 97 69 86 3 0 6 3 6 6 1 28-8 46 12 78 4 6 15 5 17 12 6 14 4 29 8 45 0 1 4-2 5 0 6 9 30 83 0 80-13-1-11-18-14-20-36-22-15-7-36 18-5 6-15 5-17 11-2 4 0 9 2 14 0 1 3-1 4 1 4 8 15 14 23 33 7 16 4 18-3 48-8 37-15 74-27 116-24 83-58 173-94 255-6 13-23 13-32 24-25 32-73 68-111 86-13 6-34 34-42 21-29-46-2-140 22-184 21-37 52-69 79-100 1-1 4 1 5 0 4-7 5-4 8-13 21-55 30-14 79-35 28-12 35-58 33-89-2-36 5-42 15-68 6-16-9-37-1-52 18-37 36-48 28-86-4-19-5-21-18-33-21-19-53 0-51-9 10-47-20-97-53-96-27 1-32 39-47 60-7 9 3 13-11 15-41 5-39 8-54 27-3 4 1 10-1 15-1 3-6 5-8 3-43-32-48-13-84-18-12-2-1-15-4-19-20-29-33-34-55-27-40 13-34 51-41 95-2 11-24 3-31 11-28 33-64 82-10 123 3 2 2 7 2 11-2 22-22 73 22 84 9 2 19-5 27-1 7 3-4 33 3 48 10 23 44 30 74 46 6 3 14 33 1 34-33 3-37-3-48-16-38-45-21-75-77-78-28-2-49 12-59-3-41-66-32-65-93-56-22 3-26 42-41 39-24-5-45-4-63 0-1 0-1-3-2-3-10 5-22 8-29 17-14 17-17 52 6 77 14 15 39 10 62 21 18 9-11 61 24 82 25 15 59-10 96-3 18 4-6 34 29 43 27 7 55 5 74-18 34-40 74-41 124-37 5 0 12 3 12 8 6 38 24 83 6 117-10 18-16-29-34-15-13 10-23 39-14 59 0 1 2-1 4 0 10 11 20 23 28 37 4 7 3 18-5 25-30 28-74 59-100 94-22 29-49 65-71 92-29 35-56 70-81 108-12 18-19 63-40 55-29-11 6-110 25-125 24-19 70-30 98-52 23-18 41-42 53-69 8-16 14-49 21-60 3-5-1-13 1-19 19-49-20-53-19-70 2-19 10-31 8-47 0-2-4-1-5-3-9-27-19-38-34-45-73-35-71 23-99 76-12 23-13 27-31 50-32 40-31 47-25 98 2 14-43 9-44 5-3-10 6-24 7-48 1-14 2-29-3-42-13-32-27-27-42-41-2-2-2-6-1-8 13-17 20-56 20-74 0-9-3-18-6-25-18-42-64-23-94-35-19-8-41-27-51-24-53 14-63 51-56 106 1 10 24 25 19 40-8 26-30 56-37 84-9 37-2 71 55 67 11-1 9-6 24-7 2 0 6 3 5 6-10 24-30 39-28 70 1 26 3 51 46 44 30-5 34-21 39-11 11 20-1 44 3 67 1 4 6 8 11 10 50 24 42-9 62 57 9 32 32 70 22 107-12 44-57 72-85 104-13 16-74 50-87 56-28 11-59 27-86 38-49 20-109 71-152 40-39-28 85-23 106-41 26-21 40-19 63-42 7-8 2-11 6-14 11-8 24-32 27-50 6-35-31-31-33-49-2-21 22-34 29-53 5-12 6-14-1-27-25-48-47-44-81-29-12 5-19 16-26 26-8 10-13 27-26 30-3 1 0-6-2-6-36-1-33 12-51 35-3 4-4-2-16-11-3-2-1-8 0-11 11-23 27-43 32-71 7-39-25-48-51-55-4-1 15-45 16-53 10-52 27-112-21-132-39-16-57 15-81 37-3 2-8 2-10 0-5-8-5-18-10-25-24-35-69-33-86-1-11 20-28 75-6 99 3 3 7 13 2 15-28 17-40 34-42 71-1 9 2 20 6 29 7 16 70 43 87 50 7 3-9 29-19 31-13 3-13-15-20-16-22-5-27 6-44 14-2 1-5-2-6-4-27-48-62-68-99-56-39 12-18 31-28 79-4 19 5 44 26 65 7 7-9 17-10 27-5 65 5 69 74 115 25 17-12 56 27 70 34 13 57-13 73 29 1 4-3 1-62 33-15 8-22 10-43 27-10 8-47 34-50 37-4 4-3 4-43 27-6 4-16-3-22 1-16 10-12 15-44 29-55 23-106 42-156 65-40 18-71 39-107 59-46 25-76 75-122 85-36 8-64-5-88-25-20-16-34-38-51-55-38-38-80-71-116-109-49-51-43-56-52-63-11-10-53-67-64-74-53-37-46-32-45-84 0-2 4-3 6-1 16 17 26 48 61 50 19 1 40-6 54-24 19-25 33-58 35-87 1-15 0-31-4-46-27-86-101-74-149-36-37 30-34 87-36 137 0 9-4 17-8 26-1 2-4 2-6 1-24-11-19-24-16-40 8-37 29-67 36-100 9-43 3-90-2-129-2-18-21-85-30-87-3-1-1-6-2-8-19-33-39-57-47-86-1-2-3-1-4-2-35-86-28-158-37-239 0-4-9-3-11 0-14 22-25 47-32 72-7 23-5 49-11 73-9 35-40 69-46 109 0 2-3 0-4 1-5 15-14 31-12 47 5 44-5 73 27 127 23 39 27 44 32 64 10 38 23 70 55 108 2 2 4 12 1 10-40-20-75-48-105-62-2-1 1-3 0-4-16-6-32-11-48-14-20-4-41-9-60-9-74-1-146-3-210-21-20-6-13-30-12-42 0-3 5-1 6-4 2-6-2-13 1-18 1-3 6-3 9-1 5 3-2 6 8 30 8 21 22 26 55 28 41 2 53 1 74-35 29-50-6-107-45-123-76-32-107 3-127 72-6 20 15 70-10 76-29 7-49-63-60-76-18-21-39-51-46-64-5-9 5-26 13-28 2 0-4-4-2-5 31-29 59-114 68-151 22-89-59-182-82-261-14-49-31-110-20-148 4-15 16-19 10-32-2-4-10-2-14 1-30 25-68 101-80 146-3 13-17 22-21 35-8 25-15 50-16 77-1 29 2 59 13 94 19 57 55 158 72 224 1 3-5 1-6 0-39-42-83-80-115-108-22-19-34-168-20-194 28-51 26-117 31-171 3-30-2-73-11-94-12-26-11-36-23-55-23-36-22-37-27-39-31-19-57-58-73-80-28-37-29-37-47-71-17-31-20-80-41-97-7-6-11-1-13 4-3 5-6 88-5 102 3 37-7 73-3 117 1 8 25 112 47 117 5 1 21 36 28 52 27 56 14 60 74 220 8 20 1 87 2 121 0 2-2 3-3 3-3-1-6-3-7-4-22-37-35-107-44-140-10-40 7-82 0-115-4-19-14-36-24-51-16-26-54-68-71-75-2-1 1-3 0-4-5-3-16-9-23-13-51-29-106-56-145-82-10-6-45-61-55-50-11 14 7 43 11 59 15 77 36 184 74 217 2 1 13 15 16 19 5 6 24 23 33 36 8 12 37 27 57 38 36 21 67 75 73 129 2 17-100-44-102-44-53-23-105-64-145-95-6-4-5-16-107-117-40-40-50-40-31-82 7-15 29-24 37-39 0-1 4 2 5 0 4-15 10-13 18-27 7-12 12-35 18-43 26-37 24-129 20-163-10-83-47-254-21-338 8-25 4-39 3-57 0-4-9-3-11 0-26 30-52 75-63 115-4 13-15 22-22 34-1 2-31 88-36 92-7 6-30 64-35 70-10 11-9 34-16 54-16 44 4 140 16 189 7 28 23 54 23 90 0 7-9-9-12-14-28-58-56-114-90-156-40-49-59-88-62-138 0-3 2 4 25 4 55 0 67-23 95-66 14-22 31-54 39-75 23-58 34-121 39-179 3-37 9-72 16-108 4-21 11-43 19-62 2-6 35-63 28-64-28-4-49 32-69 46-44 33-93 69-129 112-11 12-9 13-47 70-10 14-17 30-22 47-18 58-17 118-15 187 0 10-10 52-17 37-46-90-35-185-47-274-7-48-11-47-12-70 0-6 1-13 3-18 16-29 70-59 105-67 38-8 87-15 125-37 26-15 30-13 36-26 7-17 22-35 38-48 29-24 50-73 64-101 6-12 4-26 9-38 4-10 87-143 73-141-57 8-105 32-154 57-7 4-123 38-134 46-24 16-46 35-66 55-8 7-15 16-20 25-26 46-27 88-48 138-11 27-15 50-28 78-3 6-11 5-17 5-4 0-7-5-8-8-13-41-26-81-34-123-8-38-9-38-9-52-3-74 74-141 84-209 18-118 8-236-8-356-3-22 14-131 44-119 5 2-1 5 9 36 4 11 25 34 37 36 26 5 59 0 84-15 44-26 28-104-2-139-49-58-68-43-123-8-9 6-61 115-78 101-24-19-27-54-34-83-1-6 1-5 3-15 4-19 9-21 25-47 20-32 48-99 78-112 18-8 124-20 153-22 5 0 50-19 56-25 23-25 82-50 100-85 11-22 20-48 40-59 4-2 36-81 40-93 1-2 32-42 39-46 4-3 10-20 12-24 16-37-107 12-119 20-15 11-37 6-52 14-31 18-58 41-86 64-10 8-25 24-32 30-30 23-52 58-68 91-16 31-34 80-67 64-21-10 14-56 21-70 15-26 28-69 34-93 21-88 29-165 32-248 3-75 18-152 96-180 35-12 76 1 97 4 2 0 3 5 1 6-53 36-74 72-45 135 5 12 29 23 53 24 30 2 35 16 72-7 35-21 45-61 40-102-2-13-3-25-8-36-22-47-40-66-80-67-32-1-66 19-94 4-22-12 19-35 30-48 10-12 25-19 40-27 12-6 27-13 41-10s70-15 99 6c139 103 157 105 368 86-55-95-214-161-197-160 188 12 313-143 297-138-83 30-152-10-202-11-119-3-186 23-269 91-19 15-30 39-51 52-24 15-43 36-65 28-13-4 12-23 19-34 8-12 26-20 29-34 7-31 30-54 49-80 10-13 36-42 48-60 16-23 37-53 58-78 10-12 22-23 36-33 19-13 106-64 135-45 10 6-15 29-14 44 4 52-2 65 58 78 16 4 35-1 50-8 35-17 41-36 44-80 2-24-20-78-58-87-35-8-79 7-115 19-19 7-31 15-46 10-3-1-2-5-1-6 15-16 31-42 49-56 1-1 17-24 20-29 22-30 29-49 59-74 4-3 3 3 21 13 21 12 43 20 66 27 18 5 37 9 56 10 13 1 61-7 73-11 107-31 145-42 232-111 3-2 19-12 21-15 6-7 10-4 9-13-2-34-28-13-45-12-46 5-88-5-125-11-21-3-46-13-75-12-21 1-42 5-61 12-15 5-57 26-63 31-16 13-35 24-51 27-10 2 21-31 22-33 0 0 6-7 8-8 7-7 16-13 24-24 49-63 108-71 180-85 20-4 60 0 80-7 50-20 62-76 82-113 19-37 32-146 2-150-29-4-10 18-101 79-91 62-69 71-118 74s-77 62-79 109c-1 22-116 133-125 113-5-11 32-42 41-55 12-17 23-42 27-61 18-101 21-104 24-143 10-129 65-183-93 16-31 39-101 137-107 189-6 47 13 84 36 125 1 2 0 5-2 7-32 31-47 70-78 100-13 13-20 13-29 31-36 67 4-25 12-52 24-73-10-179 24-250 6-14 115-163 19-82-47 39-98 83-134 129-42 53-63 132-62 201 1 25 6 49 10 74 2 11 4 24 11 34 6 9 1 42 30 49 20 5-54 103-68 112-20 12-4-110-2-118 5-18 4-31 5-45 3-51-9-103-21-146-3-11-5-27-11-35-27-32-38-74-60-97-54-56-116-110-149-166-42-70-28-129-38 0-2 30 9 79 15 119 4 33 1 117 22 159 13 26 18 53 29 87 6 19 50 73 62 97 11 22 76 58 97 80 34 35 21 107-6 152-21 34-31 101-73 97-36-4-13-103-45-124-19-12-34-26-40-27-25-6-44-3-58 5-42 25-75 50-72 102 1 27 5 53 40 77 19 13 59 21 87 5 34-19 33-33 38-29 7 7 18 14-3 63-14 33-114 127-140 151-19 17-31 31-38 61z" id="wreath"/><g id="1904" class="fil5"><path d="M10642 6605h-55v33h193v-33h-48v-177c8 1 12 1 19 3 4 1 5 1 11 2 9 2 14 3 25 8l23-144c-32 25-58 29-78 28v-247c0-72 5-118 25-184l-32-23c-12 22-19 31-41 57-117 142-176 273-224 380-16 35-23 51-37 81l12 73c24-17 64-35 149-35 7 0 19 0 59 2v177zm0-277c-32-1-52 1-83 3-24 2-38 3-67 5 10-29 26-70 90-187 20-37 33-60 60-95v273zM10228 6653c49 0 147-231 147-419 0-151-97-446-152-446-14 0-29 25-49 60-7 11-9 14-19 30-28 45-99 150-99 328 0 245 132 448 172 448zm45-145c-40 0-172-240-172-397 0-87 40-164 63-164 36 0 162 281 162 429 0 59-32 132-53 132zM9778 6200c-69 69-79 132-79 184 0 130 113 269 154 269 40 0 173-132 173-244s-30-157-95-226c38-50 74-97 74-173 0-106-98-221-138-221-50 0-152 127-152 255 0 35 10 96 63 157zm139 350c-25-16-35-29-54-50-11-13-13-17-30-35-22-24-74-79-74-159 0-41 21-78 37-78 11 0 25 13 60 49 51 52 102 99 102 182 0 41-21 75-41 91zm-9-395c-60-49-137-111-137-200 0-36 23-69 38-69 31 0 136 95 136 188 0 44-21 71-37 81zM9630 6638v-33h-51v-735c-59 62-106 88-167 106l4 39c10-4 30-10 35-10 26 0 28 29 28 73v526h-51v33h202z"/></g><g id="crest"><path class="fil1 str1" d="M8898 9527V7007h2488v2520c1 686-598 118-996 529l-227 277-260-258c-410-366-1006 102-1005-548z"/><path class="fil5" d="M11249 7145l11-11 11 11v2287h-21V7145zm11-11h11v11l-11-11zm-2237 21l-11-11 11-11h2237v21H9023zm-11-11v-11h11l-11 11zm21 2286h-21V7144h21v2286zm-21 0zm904 509l-32-27-33-23-34-19-35-16-36-13-36-10-37-8-37-6-37-4-37-2-37-1h-146l-35-1-34-2-33-3-32-5-31-7-29-9-28-12-26-15-24-19-22-22-19-27-17-31-14-35-11-40-8-46-5-51-2-57h21l2 56 5 50 8 44 10 38 13 33 15 28 17 24 20 20 22 17 24 14 25 11 27 8 29 6 31 4 32 3 33 2 34 1h145l38 1 38 2 38 4 38 6 38 8 38 10 37 13 36 17 36 20 35 24 33 28-15 15zm15-15zm221 220v15h-15l-220-220 15-15 220 220zm0 15l-7 8-8-8h15zm213-264l1-1 15 15-228 250-16-14 228-250zm0 0l-1 1zm906-463l-1 53-4 47-7 42-10 37-13 32-16 28-18 24-20 20-23 16-25 13-26 10-28 8-29 5-30 3-32 2-33 1h-176l-37 1-37 3-37 4-37 6-37 8-37 11-37 14-36 17-36 20-35 24-34 28-14-16 36-29 37-25 37-21 38-17 38-14 38-11 38-9 38-6 38-4 38-3 37-1h175l32-1 31-2 29-3 28-5 26-7 24-9 22-12 20-15 18-18 16-21 14-26 12-30 10-35 7-40 4-46 1-52h21zm-21 0zM9735 9494c-8-13-6-28-6-42 4-112 160-203 252-244 48-19 64-29 121-40 14 0 23-6 41 6-14 96-254 375-384 333-9-3-20-5-24-13zm-5 138c-76-31-111-113-92-186 9-35 23-65 40-93 18-28 39-53 64-79 54-56 135-94 208-126 19-9 47-15 70-23 7-3 21-4 35-9 33-10 74-11 104-35 4-3 0-9-2-13-623-1253-624-1252-656-1311-15-28-41-63-53-74s-20-17-56-35-82-33-96-38l-45-16h57c224-4 440-5 667-7 8 0 35 22 44 38 19 35 34 82 47 120 0-3-22 2-35-25-9-18-85-59-103-50-22 10-27 12-20 39 6 25 20 48 32 73 146 300 293 601 441 902 1 2 5 9 6 7 432-984 437-983 439-1011 4-65-59-31-80-5-6 8-74 97-47 31 15-37 12-109 56-119 17-4 33-12 52-13 68-4 148 10 207 10 55 0 81-14 134-19 5-1-145 70-194 171-133 271-259 545-394 815-45 90-90 179-135 269-28 56-56 112-83 167l-105 213c-14 28-28 55-43 83-33 65-90 134-140 189-29 32-88 83-112 100-23 17-23 16-34 24-10 8-25 16-39 22s-22 8-43 15-68 12-95 1z"/></g><g id="strip"><path class="fil1 str2" d="M12921 11635h-124l-75-727 319 61z"/><path class="fil2 str2" d="M13171 11040c-61 276-122 552-183 829-48 48-92 56-123-26l73-716 234-87zM7849 10590c24-202-34-342-155-335-121 6-198 229-120 324s132-35 136-53l16 309 123-245zM7466 11632h123l76-727-319 60z"/><path class="fil2 str2" d="M7216 11037c61 276 122 552 183 829 48 48 92 56 123-26l-73-716-234-87zM9084 11255c-23 48-44 139-61 191-54 187 318 357 346 113 2-182-133-289-285-303zM7542 10483l66 328 117 11c-4-114-8-229-13-343-38 187-136 108-171 4z"/><path class="fil2 str2" d="M7589 11451c90-19 103-72 193-90l70-814c-105 336-339 188-512 215s-143 287-85 399c58 113 145 65 182 2 38-63-18-111 35-189s234 35 114 190c-17 22-59 41-60 86-2 45 28 194 64 201zM9080 11254c-18 61-38 126-56 187 56-147 173-76 189 76 28-55 54-105 82-161-55-69-129-102-215-102z"/><path class="fil2 str2" d="M7524 11258c17 179 45 454 62 634 246 369 967-606 1469-638 179-11 326 133 313 322 27-125 150-504 125-611-62-263-252-338-424-353-614-55-1531 1074-1545 646zM12538 10593c-24-202 34-342 155-335 121 6 198 229 120 324s-132-35-136-53l-16 309-123-245z"/><path class="fil2 str2" d="M12845 10486l-66 328-117 11c4-114 8-229 13-343 47 166 104 167 171 4z"/><path class="fil2 str2" d="M12797 11455c-90-19-103-72-193-90l-70-814c105 336 339 188 512 215s143 287 85 399c-58 113-152 45-185-14-33-58 28-80-41-175-69-94-226 37-106 192 17 22 58 43 60 88s-27 192-63 199z"/><path class="fil2 str1" d="M11302 11259c23 48 44 139 61 191 54 187-318 357-346 113-2-182 133-289 285-303z"/><path class="fil2 str2" d="M12860 11259c-17 179-44 457-61 636-246 369-965-606-1467-638-179-11-325 133-313 322-27-125-150-504-125-611 62-263 252-338 424-353 614-55 1528 1072 1542 644z"/><path class="fil2 str2" d="M11013 11507s67 496-5 709c-18 54 169 95 315 39 145-57 261-212 339-333 227-353-275-325-402-298-160 34-161-46-246-117zM11307 11258c18 61 38 126 56 187-56-147-173-76-189 76-28-55-54-105-82-161 55-69 129-102 215-102zM9365 11491c19 0-13 372-5 584 0 10 18 140 10 151-35 44-201 75-319 29-145-57-261-212-339-333-227-353 275-325 402-298 160 34 140-133 251-133z"/><path class="fil2 str2" d="M11678 11890s-186 329-170 457c0 0-47 140-125 15 0 0 75-341 92-452 0 0 108 102 204-20zM8681 11864s200 356 184 484c0 0 47 140 125 15 0 0-75-341-92-452 0 0-122 76-218-46z"/><path class="fil2 str2" d="M8875 11887c-50-12-106-123 59-150s117 233 91 257c-51 48 11 118 34 141 0 0 18 88-58 89-89 1-75-325-126-337zM11475 11917c33-21 129-152-36-179s-117 233-91 257c51 48-11 118-34 141 0 0 15 115 84 78 63-34 44-274 77-296zM10162 12059c-211 0-789 169-789 169-15-102-53-685 18-743 29-24 401-162 790-162h37c340 0 763 158 790 181 88 74 34 642 0 720 0 0-600-164-757-164h-88z"/><path class="fil1 str2" d="M12756 11066l-20 262M7626 11077l12 260"/></g><g id="tagline"><path class="fil5" d="M11334 10803l128 1v67h-51v63h48v63h-48v73h56v67l-133-1-2-333zm237 24l52 17c35 11 58 21 70 28s20 18 24 33c5 15 4 36-3 63-6 25-13 41-21 47-8 7-20 8-36 5 14 9 22 18 25 26s5 16 5 22-3 22-10 48l-21 84-69-23 26-106c4-17 6-28 4-33-1-5-7-9-17-12l-36 144-74-24 80-319zm60 79l-18 71c8 3 14 3 18 2s8-9 11-23l4-18c3-10 3-17 0-22-2-4-8-8-16-11zm342 108l-88 198c-10 22-18 38-23 46s-13 15-24 21-22 8-35 7-26-6-40-14c-16-9-28-20-38-33-9-13-15-26-17-39s-1-25 3-36 13-33 28-67l78-175 69 40-99 222c-6 13-9 22-9 26s1 8 5 10c4 3 8 2 11-1s8-12 14-27l98-218 69 40zm48 35l49 35c32 22 52 39 61 50s15 22 17 34 1 22-3 33c-4 10-13 28-27 55l-54 99c-14 25-24 41-31 48s-14 11-22 12-16 0-25-4-21-11-37-22l-82-58 155-281zm39 94l-102 185c9 7 16 9 21 6s12-13 22-32l60-109c7-13 11-21 12-25s1-8-1-11c-2-4-6-8-13-13zm201 79l-155 281-65-46 155-281 65 46zm28 20l47 31c31 21 52 36 62 46s15 23 17 39c1 16-4 36-17 60-11 22-21 36-30 40s-21 3-36-5c11 12 18 23 19 32s1 17 0 22c-1 6-8 20-20 44l-39 76-62-41 49-95c8-15 12-26 11-31 0-5-5-11-14-17l-66 130-67-44 146-287zm42 93l-32 64c7 5 13 7 17 7s10-7 16-20l8-16c5-9 6-16 5-21s-6-10-14-15zm131 22l116 62-25 60-47-25-23 57 44 23-23 57-44-23-27 66 51 27-25 60-121-64 123-301zM7827 11632l-64 32-17-54c-5-16-9-25-12-28s-6-4-11-1-8 7-8 12 3 16 8 32l46 143c5 15 9 24 12 28s7 5 12 2c5-2 7-6 7-12 0-5-3-16-8-33l-13-39 64-32 4 12c10 32 16 55 17 71 1 15-4 31-13 47s-23 29-41 38c-19 10-36 13-51 11s-27-10-36-23-18-35-28-65l-29-90c-7-22-12-39-14-51s-2-24 1-38c3-13 8-26 17-37s20-21 34-28c19-10 36-13 51-10s27 10 35 22 17 32 26 61l10 29zm181-68c13 30 21 51 25 64s5 27 4 41c-2 14-6 27-14 39s-18 23-31 31-25 13-37 15-24-1-34-7c-11-6-19-15-25-26s-16-32-29-62l-21-50c-13-30-21-51-25-64s-5-27-4-41c2-14 6-27 14-39s18-23 31-31 25-13 37-15 24 1 34 7c11 6 19 15 25 26s16 32 29 62l21 50zm-102-56c-6-14-10-22-13-25s-6-3-10-1c-3 2-5 5-5 10 0 4 3 14 9 29l59 137c7 17 12 27 15 30s6 4 10 1 6-7 5-12-5-17-12-34l-58-135zm229-129l-60 43-12-26c-8-16-13-26-16-30-3-3-7-3-11 0s-5 6-5 11c0 4 4 14 11 29l64 138c6 13 11 21 14 24s7 3 11 0 6-8 6-13c-1-6-4-15-10-29l-16-34-12 9-20-44 70-51 72 155-38 27-15-17c0 12-2 22-6 31s-11 16-19 23c-10 7-21 11-33 11s-22-3-31-8c-9-6-16-13-22-22s-13-24-22-43l-40-86c-13-28-21-48-24-63-3-14-2-31 5-49 6-19 19-34 37-47s34-19 50-18 28 6 38 16c9 10 19 27 30 50l6 12zm117-226l134 288-53 38-92-109 61 131-50 36-134-288 50-36 94 106-60-130 50-36zm258 59c10 31 17 53 20 67s3 27 0 41-8 26-17 37-20 20-34 27c-13 7-26 10-38 10s-23-4-33-11c-10-8-18-17-23-30-5-12-13-34-23-66l-17-53c-10-31-17-53-20-67-3-13-3-27 0-41s8-26 17-37 20-20 34-27c13-7 26-10 38-10s23 4 33 11c10 8 18 17 23 30 5 12 13 34 23 66l17 53zm-97-69c-5-14-8-23-11-27-3-3-6-4-10-2-3 2-5 5-6 9s1 14 7 30l47 144c6 18 10 29 13 32 3 4 6 4 10 2s6-6 6-11-3-17-9-35l-46-142zm225-106l-61 25-6-23c-3-11-5-18-8-20-2-2-5-3-9-1s-6 5-7 10 0 11 2 20c3 11 6 18 10 23 4 4 12 8 24 12 35 10 58 20 69 31s21 32 29 63c6 23 8 40 7 52s-7 25-18 37c-10 12-23 22-40 28-18 7-34 9-49 6s-26-11-33-22-14-29-20-53l-5-21 61-25 10 39c3 12 6 19 9 22s6 3 11 1c4-2 7-5 8-10s0-12-2-20c-5-19-10-30-16-34s-18-9-38-16-33-12-40-16-14-11-20-20-12-23-16-39c-6-24-8-43-6-56s8-25 17-36 22-19 38-26c17-7 33-9 47-7s24 7 31 16 13 26 20 51l3 12zm203-40l-68 17-9-57c-3-17-5-27-7-30-2-4-6-5-11-4-6 1-9 5-10 10s0 16 3 33l24 152c2 16 5 26 7 31s6 6 11 5 8-4 9-10c1-5 0-17-3-35l-6-41 68-17 2 13c5 34 7 58 5 73s-8 30-20 43c-11 14-27 23-46 28-20 5-37 4-52-2-14-6-25-16-32-31s-13-38-18-70l-15-95c-4-24-6-41-6-53-1-12 2-24 6-37 5-12 12-23 23-32 10-9 23-15 38-19 20-5 37-4 52 2 15 7 25 17 31 30s12 36 17 66l5 31zm25-170l116-10 4 66-46 4 4 63 43-4 4 63-43 4 4 73 51-4 4 66-120 10-19-332zm202-25l49 7c33 5 54 10 66 15 11 5 20 14 26 28s8 35 5 63c-3 26-7 43-13 51s-17 12-32 11c13 6 22 13 26 21s6 15 7 21 0 23-3 49l-9 87-64-10 11-110c2-18 2-29 0-33-2-5-7-8-17-9l-15 149-69-11 33-331zm63 67l-7 74c8 1 13 1 17-1 3-2 6-11 7-25l2-18c1-11 0-18-3-21-3-4-8-6-16-7zm158-21l110 45-17 63-44-18-16 60 41 17-16 60-41-17-18 70 48 20-17 63-115-46 83-317zM9606 11640l54-15c35-9 58-14 71-13 13 0 23 4 31 11s14 15 18 25 8 30 14 61l22 114c6 29 8 49 8 59s-3 19-8 26-11 13-19 17c-8 5-21 9-38 14l-90 25-63-324zm82 36l42 213c10-3 16-7 18-12 1-6 0-19-4-41l-25-126c-3-15-5-24-7-28s-4-6-7-8c-3-1-9-1-17 1zm319 68c4 33 7 57 7 71 1 14-2 27-7 40s-14 23-25 31-24 14-40 17c-15 3-29 2-41-1-13-4-23-10-32-21-9-10-15-22-18-35s-7-37-12-71l-8-56c-4-33-7-57-7-71-1-14 2-27 7-40s14-23 25-31 24-14 40-17c15-3 29-2 41 1 13 4 23 10 32 21 9 10 15 22 18 35s7 37 12 71l8 56zm-87-95c-2-15-4-25-6-29s-5-6-10-5c-4 1-6 3-8 7s-1 14 1 31l21 154c3 19 5 31 7 35s5 6 10 5 8-4 8-9c1-5 0-18-3-37l-20-151zm298 32l-73 5-3-58c-1-17-2-27-4-31s-5-6-11-6-10 3-11 8-2 16-1 33l7 154c1 16 2 27 4 31 2 5 6 7 11 7s9-3 10-8 2-17 1-35l-2-42 73-5 1 13c2 34 1 59-3 74-3 15-12 28-26 39-14 12-31 18-51 19-22 1-39-2-54-11-14-8-24-20-29-36s-9-40-10-73l-4-97c-1-24-1-42 0-54s4-24 11-35c6-12 16-21 28-28s26-11 42-12c22-1 40 3 54 12s24 21 29 35 8 37 10 68l1 32zm50-145l122 8-3 67-49-3-3 63 46 3-3 63-46-3-3 73 54 3-3 67-127-8 15-333zm173 17l51 9c34 6 57 11 69 16s21 15 27 29 8 35 4 63c-3 26-8 42-14 50s-18 11-34 11c14 7 23 14 27 22s6 15 7 21-1 22-4 49l-10 87-67-11 13-110c2-18 2-29 0-33-2-5-8-8-18-9l-18 149-73-12 39-330zm66 68l-9 73c8 1 14 1 18-1s6-10 8-25l2-18c1-10 0-18-2-21-3-4-8-6-17-8zm161-23l118 40-16 64-47-16-15 61 44 15-15 61-44-15-17 70 52 18-16 64-122-41 78-320z"/></g></svg>